# xmcd
#
# Track frame offsets:
#	150
#	11613
#	35114
#	51273
#	83063
#	101186
#	123329
#	139647
#	162458
#	180155
#	195631
#
# Disc length: 2955 seconds
#
# Revision: 1
# Processed by: cddbd v1.5.2PL0 Copyright (c) Steve Scherf et al.
# Submitted via: audiograbber 1.83.01
#
DISCID=8f0b890b
DTITLE=Beth Hart and Joe Bonamassa - Seesaw
DYEAR=2013
DGENRE=Blues
TTITLE0=Them There Eyes
TTITLE1=Close To My Fire
TTITLE2=Nutbush City Limits
TTITLE3=I Love You More Than You'll Ever Know
TTITLE4=Can't Let Go
TTITLE5=Miss Lady
TTITLE6=If I Tell You I Love You
TTITLE7=Rhymes
TTITLE8=A Sunday Kind Of Love
TTITLE9=See Saw
TTITLE10=Strange Fruit
EXTD=
EXTT0=
EXTT1=
EXTT2=
EXTT3=
EXTT4=
EXTT5=
EXTT6=
EXTT7=
EXTT8=
EXTT9=
EXTT10=
PLAYORDER=
